<mxfile host="app.diagrams.net" modified="2023-05-24T16:20:23.078Z" agent="Mozilla/5.0 (Windows NT 10.0; Win64; x64) AppleWebKit/537.36 (KHTML, like Gecko) Chrome/113.0.0.0 Safari/537.36" version="21.3.0" etag="rZiMtCO5XvjOszcAO4sW" type="github">
  <diagram name="Trang-1" id="M1B9dvPsX0sCx-Hy1n2M">
    <mxGraphModel>
      <root>
        <mxCell id="0" />
        <mxCell id="1" parent="0" />
      </root>
    </mxGraphModel>
  </diagram>
</mxfile>
